<svg version="1.1" xmlns="http://www.w3.org/2000/svg" xmlns:xlink="http://www.w3.org/1999/xlink" width="58.14859" height="55.82265" viewBox="0,0,58.14859,55.82265"><g transform="translate(-210.9257,-152.08867)"><g data-paper-data="{&quot;isPaintingLayer&quot;:true}" fill-rule="nonzero" stroke="none" stroke-width="0" stroke-linecap="butt" stroke-linejoin="miter" stroke-miterlimit="10" stroke-dasharray="" stroke-dashoffset="0" style="mix-blend-mode: normal"><path d="M269.0743,180.00001c0,15.415 -13.017,27.91132 -29.0743,27.91132c-16.05729,0 -29.0743,-12.49632 -29.0743,-27.91132c0,-15.415 13.01701,-27.91133 29.0743,-27.91133c16.05729,0 29.0743,12.49633 29.0743,27.91133z" fill="#ffe84a"/><path d="M218.11009,180c0,-12.08946 9.80045,-21.88991 21.88992,-21.88991c12.08946,0 21.88991,9.80045 21.88991,21.88992c0,12.08946 -9.80045,21.88992 -21.88991,21.88992c-12.08946,0 -21.88991,-9.80045 -21.88991,-21.88991z" fill="#ffffff"/><path d="M250.49461,180c0,5.45575 -4.69859,9.87853 -10.49461,9.87853c-5.79601,0 -10.49461,-4.42277 -10.49461,-9.87853c0,-5.45575 4.69859,-9.87853 10.49461,-9.87853c5.79601,0 10.49461,4.42277 10.49461,9.87853z" fill="#ff9748"/><path d="M243.03752,180c0,1.42594 -1.35994,2.58188 -3.03752,2.58188c-1.67757,0 -3.03751,-1.15595 -3.03751,-2.58188c0,-1.42594 1.35994,-2.58189 3.03751,-2.58189c1.67757,0 3.03752,1.15596 3.03752,2.58189z" fill="#ffb169"/></g></g></svg>